# xmcd
#
# Track frame offsets: 
#        150
#        12736
#        26856
#        39527
#        52885
#        66324
#        81464
#        94929
#        106839
#        119578
#        133909
#        153383
#        168621
#        180644
#        193370
#        205540
#        215836
#        229950
#        244319
#        256674
#
# Disc length: 3589 seconds
#
# Revision: 1
# Processed by: cddbd v1.5.2PL0 Copyright (c) Steve Scherf et al.
# Submitted via: ExactAudioCopyFreeDBPlugin 1.0
#
DISCID=300e0314
DTITLE=Various Artist - Candy Man Blues - CD2
DYEAR=2007
DGENRE=Blues
TTITLE0=Little Geneva - MUDDY WATERS
TTITLE1=I'm A Low-down Groove - BILLIE HOLIDAY
TTITLE2=Please Don't Go - JOHN LEE HOOKER
TTITLE3=Cryin Blues - KOKOMO ARNOLD
TTITLE4=Death Letter Blues - LEADBELLY
TTITLE5=Beer Drinkin Women - PETER CHATMAN
TTITLE6=Rollin' and Tumblin' - MUDDY WATERS
TTITLE7=Sail On Boogie - T-BONE WALKER
TTITLE8=Am I Blue - BILLIE HOLIDAY
TTITLE9=Stack 'O' Dollars - BIG JOE WILLIAMS
TTITLE10=John Hardy - LEADBELLY
TTITLE11=Frankie - MISSISIPI JOHN HURT
TTITLE12=Come Back Baby - LIGHTNIN' HOPKINS
TTITLE13=Gonna Follow My Baby - ARTHUR "BIG BOY" CRUDUP
TTITLE14=Peach Orchard Mama  - BIG JOE WILLIAMS
TTITLE15=Stop Breakin' Down Blues - ROBERT JOHNSON
TTITLE16=Keeps On Rainin' - BESSIE SMITH
TTITLE17=Toad Frog Blues - MA RAINEY 
TTITLE18=War Is Over (Goodbye California) - JOHN LEE HOOKER
TTITLE19=Me And My Chauffeur Blues - MEMPHIS MINNIE
EXTD=
EXTT0=
EXTT1=
EXTT2=
EXTT3=
EXTT4=
EXTT5=
EXTT6=
EXTT7=
EXTT8=
EXTT9=
EXTT10=
EXTT11=
EXTT12=
EXTT13=
EXTT14=
EXTT15=
EXTT16=
EXTT17=
EXTT18=
EXTT19=
PLAYORDER=
